P2
100 100
505
505 505 505 505 505 505 505 505 505 505 505 505 505 505 505 505 505 505 505 505 505 505 505 505 505 505 505 505 505 505 505 505 505 0 0 0 0 0 0 0 0 0 0 0 505 505 505 505 505 505 505 505 505 505 505 505 505 505 505 505 505 505 505 0 0 0 0 0 0 0 505 505 505 505 505 505 505 505 505 505 505 505 505 505 505 505 505 505 505 505 505 505 0 0 505 505 505 505 505 505 
505 505 505 505 505 505 505 505 505 505 505 505 505 505 505 505 505 505 505 505 505 505 505 505 505 505 505 505 505 505 505 505 0 0 0 0 0 0 0 0 0 0 0 0 0 505 505 505 505 505 505 505 505 505 505 505 505 505 505 505 505 505 505 505 505 505 505 505 505 505 505 505 505 505 505 505 505 505 505 505 505 505 505 505 505 505 505 505 0 0 0 0 0 0 0 0 505 505 505 505 
505 505 505 505 505 505 505 505 505 505 505 505 505 505 505 505 505 505 505 505 505 505 505 505 505 505 505 505 505 505 505 0 0 0 0 0 0 0 0 0 0 0 0 0 0 0 505 505 505 505 505 505 505 505 505 505 505 505 505 505 505 505 505 505 505 505 505 505 505 505 505 505 505 505 505 505 505 505 505 505 505 505 505 505 505 505 0 0 0 0 0 0 0 0 0 0 0 505 505 505 
505 505 505 505 505 505 505 505 505 505 505 505 505 505 505 505 505 505 505 505 505 505 505 505 505 505 505 505 505 505 0 0 0 0 0 0 0 0 0 0 0 0 0 0 0 0 505 505 505 505 505 505 505 505 505 505 505 505 505 505 505 505 505 505 505 505 505 505 505 505 505 505 505 505 505 505 505 505 505 505 505 505 505 505 505 0 0 0 0 0 0 0 0 0 0 0 0 0 505 505 
505 505 505 505 505 505 505 505 505 505 505 505 505 505 505 505 505 505 505 505 505 505 505 505 505 505 505 505 505 505 0 0 0 0 0 0 0 0 0 0 0 0 0 0 0 0 0 505 505 505 505 505 505 505 505 505 505 505 505 505 505 505 505 505 505 505 505 505 505 505 505 505 505 505 505 505 505 505 505 505 505 505 505 505 0 0 0 0 0 0 0 0 0 0 0 0 0 0 0 505 
505 505 505 505 505 505 505 505 505 505 505 505 505 505 505 505 505 505 505 505 505 505 505 505 505 505 505 505 505 0 0 0 0 0 0 0 0 0 0 0 0 0 0 0 0 0 0 505 505 505 505 505 505 505 505 505 505 505 505 505 505 505 505 505 505 505 505 505 505 505 505 505 505 505 505 505 505 505 505 505 505 505 505 0 0 0 0 0 0 0 0 0 0 0 0 0 0 0 0 0 
505 505 505 505 505 505 505 505 505 505 505 505 505 505 505 505 505 505 505 505 505 505 505 505 505 505 505 505 505 0 0 0 0 0 0 0 0 0 0 0 0 0 0 0 0 0 505 505 505 505 505 505 505 505 505 505 505 505 505 505 505 505 505 505 505 505 505 505 505 505 505 505 505 505 505 505 505 505 505 505 505 505 505 0 0 0 0 0 0 0 0 0 0 0 0 0 0 0 0 0 
505 505 505 505 505 505 505 505 505 505 505 505 505 505 505 505 505 505 505 505 505 505 505 505 505 505 505 505 0 0 0 0 0 0 0 0 0 0 0 0 0 0 0 0 0 0 505 505 505 505 505 505 505 505 505 505 505 505 505 505 505 505 505 505 505 505 505 505 505 505 505 505 505 505 505 505 505 505 505 505 505 505 0 0 0 0 0 0 0 0 0 0 0 0 0 0 0 0 0 0 
505 505 505 505 505 505 505 505 505 505 505 505 505 505 505 505 505 505 505 505 505 505 505 505 505 505 505 505 0 0 0 0 0 0 0 0 0 0 0 0 0 0 0 0 0 505 505 505 505 505 505 505 505 505 505 505 505 505 505 505 505 505 505 505 505 505 505 505 505 505 505 505 505 505 505 505 505 505 505 505 505 505 0 0 0 0 0 0 0 0 0 0 0 0 0 0 0 0 0 0 
505 505 505 505 505 505 505 505 505 505 505 505 505 505 505 505 505 505 505 505 505 505 505 505 505 505 505 505 0 0 0 0 0 0 0 0 0 0 0 0 0 0 0 0 0 505 505 505 505 505 505 505 505 505 505 505 505 505 505 505 505 505 505 505 505 505 505 505 505 505 505 505 505 505 505 505 505 505 505 505 505 0 0 0 0 0 0 0 0 0 0 0 0 0 0 0 0 0 0 505 
505 505 505 505 505 505 505 505 505 505 505 505 505 505 505 505 505 505 505 505 505 505 505 505 505 505 505 505 0 0 0 0 0 0 0 0 0 0 0 0 0 0 0 0 0 505 505 505 505 505 505 505 505 505 505 505 505 505 505 505 505 505 505 505 505 505 505 505 505 505 505 505 505 505 505 505 505 505 505 505 505 0 0 0 0 0 0 0 0 0 0 0 0 0 0 0 0 0 0 505 
505 505 505 505 505 505 505 505 505 505 505 505 505 505 505 505 505 505 505 505 505 505 505 505 505 505 505 505 0 0 0 0 0 0 0 0 0 0 0 0 0 0 0 0 505 505 505 505 505 505 505 505 505 505 505 505 505 505 505 505 505 505 505 505 505 505 505 505 505 505 505 505 505 505 505 505 505 505 505 505 505 0 0 0 0 0 0 0 0 0 0 0 0 0 0 0 0 0 505 505 
505 505 505 505 505 505 505 505 505 505 505 505 505 505 505 505 505 505 505 505 505 505 505 505 505 505 505 505 505 0 0 0 0 0 0 0 0 0 0 0 0 0 0 505 505 505 505 505 505 505 505 505 505 505 505 505 505 505 505 505 505 505 505 505 505 505 505 505 505 505 505 505 505 505 505 505 505 505 505 505 505 0 0 0 0 0 0 0 0 0 0 0 0 0 0 0 0 0 505 505 
505 505 505 505 505 505 505 505 505 505 505 505 505 505 505 505 505 505 505 505 505 505 505 505 505 505 505 505 505 505 0 0 0 0 0 0 0 0 0 0 0 0 505 505 505 505 505 505 505 505 505 505 505 505 505 505 505 505 505 505 505 505 505 505 505 505 505 505 505 505 505 505 505 505 505 505 505 505 505 505 505 0 0 0 0 0 0 0 0 0 0 0 0 0 0 0 0 505 505 505 
505 505 505 505 505 505 505 505 505 505 505 505 505 505 505 505 505 505 505 505 505 505 505 505 505 505 505 505 505 505 505 0 0 0 0 0 0 0 0 0 0 505 505 505 505 505 505 505 505 505 505 505 505 505 505 505 505 505 505 505 505 505 505 505 505 505 505 505 505 505 505 505 505 505 505 505 505 505 505 505 505 505 505 0 0 0 0 0 0 0 0 0 0 0 0 0 505 505 505 505 
505 505 505 505 505 505 505 505 505 505 505 505 505 505 505 505 505 505 505 505 505 505 505 505 505 505 505 505 505 505 505 505 0 0 0 0 0 0 505 505 505 505 505 505 505 505 505 505 505 505 505 505 505 505 505 505 505 505 505 505 505 505 505 505 505 505 505 505 505 505 505 505 505 505 505 505 505 505 505 505 505 505 505 505 0 0 0 0 0 0 0 0 0 0 0 505 505 505 505 505 
505 505 505 505 505 505 505 505 505 505 505 505 505 505 505 505 505 505 505 505 505 505 505 505 505 505 505 505 505 505 505 505 505 505 0 0 505 505 505 505 505 505 505 505 505 505 505 505 505 505 505 505 505 505 505 505 505 505 505 505 505 505 505 505 505 505 505 505 505 505 505 505 505 505 505 505 505 505 505 505 505 505 505 505 505 505 0 0 0 0 0 0 0 505 505 505 505 505 505 505 
505 505 505 505 505 505 505 505 505 505 505 505 505 505 505 505 505 505 505 505 505 505 505 505 505 505 505 505 505 505 505 505 505 505 505 505 505 505 505 505 505 505 505 505 505 505 505 505 505 505 505 505 505 505 505 505 505 0 0 0 0 0 0 0 505 505 505 505 505 505 505 505 505 505 505 505 505 505 505 505 505 505 505 505 505 505 505 505 505 505 505 505 505 505 505 505 505 505 505 505 
505 505 505 505 505 505 505 505 505 505 505 0 0 0 0 0 505 505 505 505 505 505 505 505 505 505 505 505 505 505 505 505 505 505 505 505 505 505 505 505 505 505 505 505 505 505 505 505 505 505 505 505 505 505 505 0 0 0 0 0 0 0 0 0 0 505 505 505 505 505 505 505 505 505 505 505 505 505 505 505 505 505 505 505 505 505 505 505 505 505 505 505 505 505 505 505 505 505 505 505 
505 505 505 505 505 505 505 505 505 0 0 0 0 0 0 0 0 505 505 505 505 505 505 505 505 505 505 505 505 505 505 505 505 505 505 505 505 505 505 505 505 505 505 505 505 505 505 505 505 505 505 505 505 505 0 0 0 0 0 0 0 0 0 0 0 0 0 505 505 505 505 505 505 505 505 505 505 505 505 505 505 505 505 505 505 505 505 505 505 505 505 505 505 505 505 505 505 505 505 505 
505 505 505 505 505 505 505 505 0 0 0 0 0 0 0 0 0 0 505 505 505 505 505 505 505 505 505 505 505 505 505 505 505 505 505 505 505 505 505 505 505 505 505 505 505 505 505 505 505 505 505 505 505 0 0 0 0 0 0 0 0 0 0 0 0 0 0 0 505 505 505 505 505 505 505 505 505 505 505 505 505 505 505 505 505 505 505 505 505 505 505 505 505 505 505 505 505 505 505 505 
505 505 505 505 505 505 505 0 0 0 0 0 0 0 0 0 0 0 0 505 505 505 505 505 505 505 505 505 505 505 505 505 505 505 505 505 505 505 505 505 505 505 505 505 505 505 505 505 505 505 505 505 0 0 0 0 0 0 0 0 0 0 0 0 0 0 0 0 0 505 505 505 505 505 505 505 505 505 505 505 505 505 505 505 505 505 505 505 505 505 505 505 505 505 505 505 505 505 505 505 
505 505 505 505 505 505 0 0 0 0 0 0 0 0 0 0 0 0 0 0 505 505 505 505 505 505 505 505 505 505 505 505 505 505 505 505 505 505 505 505 505 505 505 505 505 505 505 505 505 505 505 505 0 0 0 0 0 0 0 0 0 0 0 0 0 0 0 0 0 505 505 505 505 505 505 505 505 505 505 505 505 505 505 505 505 505 505 505 505 505 505 505 505 505 505 505 505 505 505 505 
505 505 505 505 505 0 0 0 0 0 0 0 0 0 0 0 0 0 0 0 0 505 505 505 505 505 505 505 505 505 505 505 505 505 505 505 505 505 505 505 505 505 505 505 505 505 505 505 505 505 505 0 0 0 0 0 0 0 0 0 0 0 0 0 0 0 0 0 0 505 505 505 505 505 505 505 505 505 505 505 505 505 505 505 505 505 505 505 505 505 505 505 505 505 505 505 505 505 505 505 
505 505 505 505 505 0 0 0 0 0 0 0 0 0 0 0 0 0 0 0 0 0 505 505 505 505 505 505 505 505 505 505 505 505 505 505 505 505 505 505 505 505 505 505 505 505 505 505 505 505 505 0 0 0 0 0 0 0 0 0 0 0 0 0 0 0 0 0 505 505 505 505 505 505 505 505 505 505 505 505 505 505 505 505 505 505 505 505 505 505 505 505 505 505 505 505 505 505 505 505 
505 505 505 505 0 0 0 0 0 0 0 0 0 0 0 0 0 0 0 0 0 0 505 505 505 505 505 505 505 505 505 505 505 505 505 505 505 505 505 505 505 505 505 505 505 505 505 505 505 505 0 0 0 0 0 0 0 0 0 0 0 0 0 0 0 0 0 0 505 505 505 505 505 505 505 505 505 505 505 505 505 505 505 505 505 505 505 505 505 505 505 505 505 505 505 505 505 505 505 505 
505 505 505 505 0 0 0 0 0 0 0 0 0 0 0 0 0 0 0 0 0 0 505 505 505 505 505 505 505 505 505 505 505 505 505 505 505 505 505 505 505 505 505 505 505 505 505 505 505 505 0 0 0 0 0 0 0 0 0 0 0 0 0 0 0 0 0 0 505 505 505 505 505 505 505 505 505 505 505 505 505 505 505 505 505 505 505 505 505 505 505 505 505 505 505 505 505 505 505 505 
505 505 505 505 0 0 0 0 0 0 0 0 0 0 0 0 0 0 0 0 0 0 505 505 505 505 505 505 505 505 505 505 505 505 505 505 505 505 505 505 505 505 505 505 505 505 505 505 505 505 0 0 0 0 0 0 0 0 0 0 0 0 0 0 0 0 0 505 505 505 505 505 505 505 505 505 505 505 505 505 505 505 505 505 505 505 505 505 505 505 505 505 505 505 505 505 505 505 505 505 
505 505 505 505 0 0 0 0 0 0 0 0 0 0 0 0 0 0 0 0 0 505 505 505 505 505 505 505 505 505 505 505 505 505 505 505 505 505 505 505 505 505 505 505 505 505 505 505 505 505 0 0 0 0 0 0 0 0 0 0 0 0 0 0 0 0 0 505 505 505 505 505 505 505 505 505 505 505 505 505 505 505 505 505 505 505 505 505 505 505 505 505 505 505 505 505 505 505 505 505 
505 505 505 505 0 0 0 0 0 0 0 0 0 0 0 0 0 0 0 0 0 505 505 505 505 505 505 505 505 505 505 505 505 505 505 505 505 505 505 505 505 505 505 505 505 505 505 505 505 505 505 0 0 0 0 0 0 0 0 0 0 0 0 0 0 0 505 505 505 505 505 505 505 505 505 505 505 505 505 505 505 505 505 505 505 505 505 505 505 505 505 505 505 505 505 505 505 505 505 505 
505 505 505 505 0 0 0 0 0 0 0 0 0 0 0 0 0 0 0 0 505 505 505 505 505 505 505 505 505 505 505 505 505 505 505 505 505 505 505 505 505 505 505 505 505 505 505 505 505 505 505 505 0 0 0 0 0 0 0 0 0 0 0 0 0 505 505 505 505 505 505 505 505 505 505 505 505 505 505 505 505 505 505 505 505 505 505 505 505 505 505 505 505 505 505 505 505 505 505 505 
505 505 505 505 505 505 0 0 0 0 0 0 0 0 0 0 0 0 0 505 505 505 505 505 505 505 505 505 505 505 505 505 505 505 505 505 505 505 505 505 505 505 505 505 505 505 505 505 505 505 505 505 505 0 0 0 0 0 0 0 0 0 0 0 505 505 505 505 505 505 505 505 505 505 505 505 505 505 505 505 505 505 505 505 505 505 505 505 505 505 505 505 505 505 505 505 505 505 505 505 
505 505 505 505 505 505 505 0 0 0 0 0 0 0 0 0 0 0 505 505 505 505 505 505 505 505 505 505 505 505 505 505 505 505 505 505 505 505 505 505 505 505 505 505 505 505 505 505 505 505 505 505 505 505 0 0 0 0 0 0 0 0 0 505 505 505 505 505 505 505 505 505 505 505 505 505 505 505 505 505 505 505 505 505 505 505 505 505 505 505 505 505 505 505 505 505 505 505 505 505 
505 505 505 505 505 505 505 505 505 0 0 0 0 0 0 0 0 505 505 505 505 505 505 505 505 505 505 505 505 505 505 505 505 505 505 505 505 505 505 505 505 505 505 505 505 505 505 505 505 505 505 505 505 505 505 0 0 0 0 0 505 505 505 505 505 505 505 505 505 505 505 505 505 505 505 505 505 505 505 505 505 505 0 0 0 0 0 505 505 505 505 505 505 505 505 505 505 505 505 505 
505 505 505 505 505 505 505 505 505 505 505 0 0 0 0 505 505 505 505 505 505 505 505 505 505 505 505 505 505 505 505 505 505 505 505 505 505 505 505 505 505 505 505 505 505 505 505 505 505 505 505 505 505 505 505 505 505 505 505 505 505 505 505 505 505 505 505 505 505 505 505 505 505 505 505 505 505 505 505 0 0 0 0 0 0 0 0 0 505 505 505 505 505 505 505 505 505 505 505 505 
505 505 505 505 505 505 505 505 505 505 505 505 505 505 505 505 505 505 505 505 505 505 505 505 505 505 505 505 505 505 505 505 505 505 505 505 505 505 505 505 505 505 505 505 505 505 505 505 505 505 505 505 505 505 505 505 505 505 505 505 505 505 505 505 505 505 505 505 505 505 505 505 505 505 505 505 505 505 0 0 0 0 0 0 0 0 0 0 0 0 505 505 505 505 505 505 505 505 505 505 
505 505 505 505 505 505 505 505 505 505 505 505 505 505 505 505 505 505 505 505 505 505 505 505 505 505 505 505 505 505 505 505 505 0 0 0 0 0 0 505 505 505 505 505 505 505 505 505 505 505 505 505 505 505 505 505 505 505 505 505 505 505 505 505 505 505 505 505 505 505 505 505 505 505 505 505 505 0 0 0 0 0 0 0 0 0 0 0 0 0 0 505 505 505 505 505 505 505 505 505 
505 505 505 505 505 505 505 505 505 505 505 505 505 505 505 505 505 505 505 505 505 505 505 505 505 505 505 505 505 505 505 0 0 0 0 0 0 0 0 0 505 505 505 505 505 505 505 505 505 505 505 505 505 505 505 505 505 505 505 505 505 505 505 505 505 505 505 505 505 505 505 505 505 505 505 505 0 0 0 0 0 0 0 0 0 0 0 0 0 0 0 0 505 505 505 505 505 505 505 505 
505 505 505 505 505 505 505 505 505 505 505 505 505 505 505 505 505 505 505 505 505 505 505 505 505 505 505 505 505 505 0 0 0 0 0 0 0 0 0 0 0 505 505 505 505 505 505 505 505 505 505 505 505 505 505 505 505 505 505 505 505 505 505 505 505 505 505 505 505 505 505 505 505 505 505 505 0 0 0 0 0 0 0 0 0 0 0 0 0 0 0 0 0 505 505 505 505 505 505 505 
505 505 505 505 505 505 505 505 505 505 505 505 505 505 505 505 505 505 505 505 505 505 505 505 505 505 505 505 505 0 0 0 0 0 0 0 0 0 0 0 0 0 505 505 505 505 505 505 505 505 505 505 505 505 505 505 505 505 505 505 505 505 505 505 505 505 505 505 505 505 505 505 505 505 505 0 0 0 0 0 0 0 0 0 0 0 0 0 0 0 0 0 0 505 505 505 505 505 505 505 
505 505 505 505 505 505 505 505 505 505 505 505 505 505 505 505 505 505 505 505 505 505 505 505 505 505 505 505 0 0 0 0 0 0 0 0 0 0 0 0 0 0 0 505 505 505 505 505 505 505 505 505 505 505 505 505 505 505 505 505 505 505 505 505 505 505 505 505 505 505 505 505 505 505 505 0 0 0 0 0 0 0 0 0 0 0 0 0 0 0 0 0 0 505 505 505 505 505 505 505 
505 505 505 505 505 505 505 505 505 505 505 505 505 505 505 505 505 505 505 505 505 505 505 505 505 505 505 505 0 0 0 0 0 0 0 0 0 0 0 0 0 0 0 0 505 505 505 505 505 505 505 505 505 505 505 505 505 505 505 505 505 505 505 505 505 505 505 505 505 505 505 505 505 505 505 0 0 0 0 0 0 0 0 0 0 0 0 0 0 0 0 0 505 505 505 505 505 505 505 505 
505 505 505 505 505 505 505 505 505 505 505 505 505 505 505 505 505 505 505 505 505 505 505 505 505 505 505 0 0 0 0 0 0 0 0 0 0 0 0 0 0 0 0 0 505 505 505 505 505 505 505 505 505 505 505 505 505 505 505 505 505 505 505 505 505 505 505 505 505 505 505 505 505 505 0 0 0 0 0 0 0 0 0 0 0 0 0 0 0 0 0 0 505 505 505 505 505 505 505 505 
505 505 505 505 505 505 505 505 505 505 505 505 505 505 505 505 505 505 505 505 505 505 505 505 505 505 505 0 0 0 0 0 0 0 0 0 0 0 0 0 0 0 0 0 505 505 505 505 505 505 505 505 505 505 505 505 505 505 505 505 505 505 505 505 505 505 505 505 505 505 505 505 505 505 0 0 0 0 0 0 0 0 0 0 0 0 0 0 0 0 0 0 505 505 505 505 505 505 505 505 
505 505 505 505 505 505 505 505 505 505 505 505 505 505 505 505 505 505 505 505 505 505 505 505 505 505 505 0 0 0 0 0 0 0 0 0 0 0 0 0 0 0 0 0 505 505 505 505 505 505 505 505 505 505 505 505 505 505 505 505 505 505 505 505 505 505 505 505 505 505 505 505 505 505 0 0 0 0 0 0 0 0 0 0 0 0 0 0 0 0 0 505 505 505 505 505 505 505 505 505 
505 505 505 505 505 505 505 505 505 505 505 505 505 505 505 505 505 505 505 505 505 505 505 505 505 505 505 0 0 0 0 0 0 0 0 0 0 0 0 0 0 0 0 0 505 505 505 505 505 505 505 505 505 505 505 505 505 505 505 505 505 505 505 505 505 505 505 505 505 505 505 505 505 505 505 0 0 0 0 0 0 0 0 0 0 0 0 0 0 0 0 505 505 505 505 505 505 505 505 505 
505 505 505 505 505 505 505 505 505 505 505 505 505 505 505 505 505 505 505 505 505 505 505 505 505 505 505 0 0 0 0 0 0 0 0 0 0 0 0 0 0 0 0 0 505 505 505 505 505 505 505 505 505 505 505 505 505 505 505 505 505 505 505 505 505 505 505 505 505 505 505 505 505 505 505 505 0 0 0 0 0 0 0 0 0 0 0 0 0 0 505 505 505 505 505 505 505 505 505 505 
505 505 505 505 505 505 505 505 505 505 505 505 505 505 505 505 505 505 505 505 505 505 505 505 505 505 505 0 0 0 0 0 0 0 0 0 0 0 0 0 0 0 0 0 505 505 505 505 505 505 505 505 505 505 505 505 505 505 505 505 505 505 505 505 505 505 505 505 505 505 505 505 505 505 505 505 505 0 0 0 0 0 0 0 0 0 0 0 0 505 505 505 505 505 505 505 505 505 505 505 
505 505 505 505 505 505 505 505 505 505 505 505 505 505 505 505 505 505 505 505 505 505 505 505 505 505 505 505 0 0 0 0 0 0 0 0 0 0 0 0 0 0 0 505 505 505 505 505 505 505 505 505 505 505 505 505 505 505 505 505 505 505 505 505 505 505 505 505 505 505 505 505 505 505 505 505 505 505 0 0 0 0 0 0 0 0 0 505 505 505 505 505 505 505 505 505 505 505 505 505 
505 505 505 505 505 505 505 505 505 505 505 505 505 505 505 505 505 505 505 505 505 505 505 505 505 505 505 505 505 0 0 0 0 0 0 0 0 0 0 0 0 0 505 505 505 505 505 505 505 505 505 505 505 505 505 505 505 505 505 505 505 505 505 505 505 505 505 505 505 505 505 505 505 505 505 505 505 505 505 0 0 0 0 0 0 505 505 505 505 505 505 505 505 505 505 505 505 505 505 505 
505 505 505 505 0 0 0 0 0 0 0 505 505 505 505 505 505 505 505 505 505 505 505 505 505 505 505 505 505 505 0 0 0 0 0 0 0 0 0 0 0 505 505 505 505 505 505 505 505 505 505 505 505 505 505 505 505 505 505 505 505 505 505 505 505 505 505 505 505 505 505 505 505 505 505 505 505 505 505 505 505 505 505 505 505 505 505 505 505 505 505 505 505 505 505 505 505 505 505 505 
505 505 505 0 0 0 0 0 0 0 0 0 505 505 505 505 505 505 505 505 505 505 505 505 505 505 505 505 505 505 505 0 0 0 0 0 0 0 0 0 505 505 505 505 505 505 505 505 505 505 505 505 505 505 505 505 505 505 505 505 505 505 505 505 505 505 505 505 505 505 505 505 505 505 505 505 505 505 505 505 505 505 505 505 505 505 505 505 505 505 505 505 505 505 505 505 505 505 505 505 
505 505 0 0 0 0 0 0 0 0 0 0 0 505 505 505 505 505 505 505 505 505 505 505 505 505 505 505 505 505 505 505 505 0 0 0 0 0 0 505 505 505 505 505 505 505 505 505 505 505 505 505 505 505 505 505 505 505 505 505 505 505 505 505 505 505 505 505 505 505 505 505 505 505 505 505 505 505 505 505 505 505 505 505 505 505 505 505 505 505 505 505 505 505 505 505 505 505 505 505 
505 0 0 0 0 0 0 0 0 0 0 0 0 0 505 505 505 505 505 505 505 505 505 505 505 505 505 505 505 505 505 505 505 505 505 505 505 505 505 505 505 505 505 505 505 505 505 505 505 505 505 505 505 505 505 505 505 505 505 0 0 0 0 0 505 505 505 505 505 505 505 505 505 505 505 505 505 505 505 505 505 505 505 505 505 505 505 505 505 505 505 505 505 505 505 505 505 505 505 505 
0 0 0 0 0 0 0 0 0 0 0 0 0 0 0 0 505 505 505 505 505 505 505 505 505 505 505 505 505 505 505 505 505 505 505 505 505 505 505 505 505 505 505 505 505 505 505 505 505 505 505 505 505 505 505 505 505 0 0 0 0 0 0 0 0 505 505 505 505 505 505 505 505 505 505 505 505 505 505 505 505 505 505 505 505 505 505 505 505 505 505 505 505 505 505 505 505 505 505 505 
0 0 0 0 0 0 0 0 0 0 0 0 0 0 0 0 505 505 505 505 505 505 505 505 505 505 505 505 505 505 505 505 505 505 505 505 505 505 505 505 505 505 505 505 505 505 505 505 505 505 505 505 505 505 0 0 0 0 0 0 0 0 0 0 0 0 505 505 505 505 505 505 505 505 505 505 505 505 505 505 505 505 505 505 505 505 505 505 505 505 505 505 505 505 505 505 505 505 505 505 
0 0 0 0 0 0 0 0 0 0 0 0 0 0 0 0 0 505 505 505 505 505 505 505 505 505 505 505 505 505 505 505 505 505 505 505 505 505 505 505 505 505 505 505 505 505 505 505 505 505 505 505 505 0 0 0 0 0 0 0 0 0 0 0 0 0 0 505 505 505 505 505 505 505 505 505 505 505 505 505 505 505 505 505 505 505 505 505 505 505 505 505 505 505 505 505 505 505 505 0 
0 0 0 0 0 0 0 0 0 0 0 0 0 0 0 0 0 505 505 505 505 505 505 505 505 505 505 505 505 505 505 505 505 505 505 505 505 505 505 505 505 505 505 505 505 505 505 505 505 505 505 505 0 0 0 0 0 0 0 0 0 0 0 0 0 0 0 0 505 505 505 505 505 505 505 505 505 505 505 505 505 505 505 505 505 505 505 505 505 505 505 505 505 505 505 505 505 505 505 0 
0 0 0 0 0 0 0 0 0 0 0 0 0 0 0 0 0 505 505 505 505 505 505 505 505 505 505 505 505 505 505 505 505 505 505 505 505 505 505 505 505 505 505 505 505 505 505 505 505 505 505 0 0 0 0 0 0 0 0 0 0 0 0 0 0 0 0 0 505 505 505 505 505 505 505 505 505 505 505 505 505 505 505 505 505 505 505 505 505 505 505 505 505 505 505 505 505 505 505 0 
0 0 0 0 0 0 0 0 0 0 0 0 0 0 0 0 0 505 505 505 505 505 505 505 505 505 505 505 505 505 505 505 505 505 505 505 505 505 505 505 505 505 505 505 505 505 505 505 505 505 505 0 0 0 0 0 0 0 0 0 0 0 0 0 0 0 0 0 0 505 505 505 505 505 505 505 505 505 505 505 505 505 505 505 505 505 505 505 505 505 505 505 505 505 505 505 505 505 505 505 
0 0 0 0 0 0 0 0 0 0 0 0 0 0 0 0 505 505 505 505 505 505 505 505 505 505 505 505 505 505 505 505 505 505 505 505 505 505 505 505 505 505 505 505 505 505 505 505 505 505 0 0 0 0 0 0 0 0 0 0 0 0 0 0 0 0 0 0 0 505 505 505 505 505 505 505 505 505 505 505 505 505 505 505 505 505 505 505 505 505 505 505 505 505 505 505 505 505 505 505 
505 0 0 0 0 0 0 0 0 0 0 0 0 0 0 505 505 505 505 505 505 505 505 505 505 505 505 505 505 505 505 505 505 505 505 505 505 505 505 505 505 505 505 505 505 505 505 505 505 505 0 0 0 0 0 0 0 0 0 0 0 0 0 0 0 0 0 0 505 505 505 505 505 505 505 505 505 505 505 505 505 505 505 505 505 505 505 505 505 505 505 505 505 505 505 505 505 505 505 505 
505 505 0 0 0 0 0 0 0 0 0 0 0 0 505 505 505 505 505 505 505 505 505 505 505 505 505 505 505 505 505 505 505 505 505 505 505 505 505 505 505 505 505 505 505 505 505 505 505 0 0 0 0 0 0 0 0 0 0 0 0 0 0 0 0 0 0 505 505 505 505 505 505 505 505 505 505 505 505 505 505 505 505 505 505 505 505 505 505 505 505 505 505 505 505 505 505 505 505 505 
505 505 505 0 0 0 0 0 0 0 0 0 0 505 505 505 505 505 505 505 505 505 505 505 505 505 505 505 505 505 505 505 505 505 505 505 505 505 505 505 505 505 505 505 505 505 505 505 505 0 0 0 0 0 0 0 0 0 0 0 0 0 0 0 0 0 0 505 505 505 505 505 505 505 505 505 505 505 505 505 505 505 505 505 505 505 505 505 505 505 505 505 505 505 505 505 505 505 505 505 
505 505 505 505 0 0 0 0 0 0 0 0 505 505 505 505 505 505 505 505 505 505 505 505 505 505 505 505 505 505 505 505 505 505 505 505 505 505 505 505 505 505 505 505 505 505 505 505 0 0 0 0 0 0 0 0 0 0 0 0 0 0 0 0 0 0 505 505 505 505 505 505 505 505 505 505 505 505 505 505 505 505 505 505 505 505 505 505 505 505 505 505 505 505 505 505 505 505 505 505 
505 505 505 505 505 505 0 0 0 0 0 505 505 505 505 505 505 505 505 505 505 505 505 505 505 505 505 505 505 505 505 505 505 505 505 505 505 505 505 505 505 505 505 505 505 505 505 505 0 0 0 0 0 0 0 0 0 0 0 0 0 0 0 0 0 0 505 505 505 505 505 505 505 505 505 505 505 505 505 505 505 505 505 505 505 505 505 505 505 505 505 505 505 505 505 505 505 505 505 505 
505 505 505 505 505 505 505 505 505 505 505 505 505 505 505 505 505 505 505 505 505 505 505 505 505 505 505 505 505 505 505 505 505 505 505 505 505 505 505 505 505 505 505 505 505 505 505 505 505 0 0 0 0 0 0 0 0 0 0 0 0 0 0 0 0 505 505 505 505 505 505 505 505 505 505 505 505 505 505 505 505 505 505 505 505 505 505 505 505 505 505 505 505 505 505 505 505 505 505 505 
505 505 505 505 505 505 505 505 505 505 505 505 505 505 505 505 505 505 505 505 505 505 505 505 505 505 505 505 505 505 505 505 505 505 505 505 505 505 505 505 505 505 505 505 505 505 505 505 505 0 0 0 0 0 0 0 0 0 0 0 0 0 0 0 0 505 505 505 505 505 505 505 505 505 505 505 505 505 505 505 505 505 505 505 0 0 0 0 505 505 505 505 505 505 505 505 505 505 505 505 
505 505 505 505 505 505 505 505 505 505 505 505 505 505 505 505 505 505 505 505 505 505 505 505 505 505 505 505 505 505 505 505 505 505 505 505 505 505 505 505 505 505 505 505 505 505 505 505 505 505 0 0 0 0 0 0 0 0 0 0 0 0 0 505 505 505 505 505 505 505 505 505 505 505 505 505 505 505 505 505 505 505 505 0 0 0 0 0 0 0 0 505 505 505 505 505 505 505 505 505 
505 505 505 505 505 505 505 505 505 505 505 505 505 505 505 505 505 505 505 505 505 505 505 505 505 505 505 0 0 0 0 505 505 505 505 505 505 505 505 505 505 505 505 505 505 505 505 505 505 505 505 0 0 0 0 0 0 0 0 0 0 505 505 505 505 505 505 505 505 505 505 505 505 505 505 505 505 505 505 505 505 505 0 0 0 0 0 0 0 0 0 0 505 505 505 505 505 505 505 505 
505 505 505 505 505 505 505 505 505 505 505 505 505 505 505 505 505 505 505 505 505 505 505 505 505 505 0 0 0 0 0 0 505 505 505 505 505 505 505 505 505 505 505 505 505 505 505 505 505 505 505 505 0 0 0 0 0 0 505 505 505 505 505 505 505 505 505 505 505 505 505 505 505 505 505 505 505 505 505 505 0 0 0 0 0 0 0 0 0 0 0 0 0 505 505 505 505 505 505 505 
505 505 505 505 505 505 505 505 505 505 505 505 505 505 505 505 505 505 505 505 505 505 505 505 505 0 0 0 0 0 0 0 0 505 505 505 505 505 505 505 505 505 505 505 505 505 505 505 505 505 505 505 505 0 0 0 505 505 505 505 505 505 505 505 505 505 505 505 505 505 505 505 505 505 505 505 505 505 505 0 0 0 0 0 0 0 0 0 0 0 0 0 0 0 505 505 505 505 505 505 
505 505 505 505 505 505 505 505 505 505 505 505 505 505 505 505 505 505 505 505 505 505 505 505 0 0 0 0 0 0 0 0 0 0 0 505 505 505 505 505 505 505 505 505 505 505 505 505 505 505 505 505 505 505 505 505 505 505 505 505 505 505 505 505 505 505 505 505 505 505 505 505 505 505 505 505 505 505 505 0 0 0 0 0 0 0 0 0 0 0 0 0 0 0 0 505 505 505 505 505 
505 505 505 505 505 505 505 505 505 505 505 505 505 505 505 505 505 505 505 505 505 505 0 0 0 0 0 0 0 0 0 0 0 0 0 0 505 505 505 505 505 505 505 505 505 505 505 505 505 505 505 505 505 505 505 505 505 505 505 505 505 505 505 505 505 505 505 505 505 505 505 505 505 505 505 505 505 505 0 0 0 0 0 0 0 0 0 0 0 0 0 0 0 0 0 505 505 505 505 505 
505 505 505 505 505 505 505 505 505 505 505 505 505 505 505 505 505 505 505 505 505 0 0 0 0 0 0 0 0 0 0 0 0 0 0 0 0 505 505 505 505 505 505 505 505 505 505 505 505 505 505 505 505 505 505 505 505 505 505 505 505 505 505 505 505 505 505 505 505 505 505 505 505 505 505 505 505 505 0 0 0 0 0 0 0 0 0 0 0 0 0 0 0 0 0 0 505 505 505 505 
505 505 505 505 505 505 505 505 505 505 505 505 505 505 505 505 505 505 505 505 505 0 0 0 0 0 0 0 0 0 0 0 0 0 0 0 0 505 505 505 505 505 505 505 505 505 505 505 505 505 505 505 505 505 505 505 505 505 505 505 505 505 505 505 505 505 505 505 505 505 505 505 505 505 505 505 505 505 505 0 0 0 0 0 0 0 0 0 0 0 0 0 0 0 0 0 505 505 505 505 
505 505 505 505 505 505 505 505 505 505 505 505 505 505 505 505 505 505 505 505 0 0 0 0 0 0 0 0 0 0 0 0 0 0 0 0 0 505 505 505 505 505 505 505 505 505 505 505 505 505 505 505 505 505 505 505 505 505 505 505 505 505 505 505 505 505 505 505 505 505 505 505 505 505 505 505 505 505 505 0 0 0 0 0 0 0 0 0 0 0 0 0 0 0 0 0 505 505 505 505 
505 505 505 505 505 505 505 505 505 505 505 505 505 505 505 505 505 505 505 0 0 0 0 0 0 0 0 0 0 0 0 0 0 0 0 0 0 505 505 505 505 505 505 505 505 505 505 505 505 505 505 505 505 505 505 505 505 505 505 505 505 505 505 505 505 505 505 505 505 505 505 505 505 505 505 505 505 505 505 505 0 0 0 0 0 0 0 0 0 0 0 0 0 0 0 0 0 505 505 505 
505 505 505 505 505 505 505 505 505 505 505 505 505 505 505 505 505 505 505 0 0 0 0 0 0 0 0 0 0 0 0 0 0 0 0 0 505 505 505 505 505 505 505 505 505 505 505 505 505 505 505 505 505 505 505 505 505 505 505 505 505 505 505 505 505 505 505 505 505 505 505 505 505 505 505 505 505 505 505 505 0 0 0 0 0 0 0 0 0 0 0 0 0 0 0 0 0 505 505 505 
505 505 505 505 505 505 505 505 505 505 505 505 505 505 505 505 505 505 0 0 0 0 0 0 0 0 0 0 0 0 0 0 0 0 0 505 505 505 505 505 505 505 505 505 505 505 505 505 505 505 505 505 505 505 505 505 505 505 505 505 505 505 505 505 505 505 505 505 505 505 505 505 505 505 505 505 505 505 505 505 505 0 0 0 0 0 0 0 0 0 0 0 0 0 0 0 505 505 505 505 
505 505 505 505 505 505 505 505 505 505 505 505 505 505 505 505 505 0 0 0 0 0 0 0 0 0 0 0 0 0 0 0 0 0 505 505 505 505 505 505 505 505 505 505 505 505 505 505 505 505 505 505 505 505 505 505 505 505 505 505 505 505 505 505 505 505 505 505 505 505 505 505 505 505 505 505 505 505 505 505 505 505 0 0 0 0 0 0 0 0 0 0 0 0 0 505 505 505 505 505 
505 505 505 505 505 505 505 505 505 505 505 505 505 505 505 0 0 0 0 0 0 0 0 0 0 0 0 0 0 0 0 0 0 505 505 505 505 505 505 505 505 505 505 505 505 505 505 505 505 505 505 505 505 505 505 505 505 505 505 505 505 505 505 505 505 505 505 505 505 505 505 505 505 505 505 505 505 505 505 505 505 505 505 0 0 0 0 0 0 0 0 0 0 0 505 505 505 505 505 505 
505 505 505 505 505 505 505 505 505 505 505 505 505 0 0 0 0 0 0 0 0 0 0 0 0 0 0 0 0 0 0 0 505 505 505 505 505 505 505 505 505 505 505 505 505 505 505 505 505 505 505 505 505 505 505 505 505 505 505 505 505 505 505 505 505 505 505 505 505 505 505 505 505 505 505 505 505 505 505 505 505 505 505 505 0 0 0 0 0 0 0 0 0 505 505 505 505 505 505 505 
505 505 505 505 505 505 505 505 505 505 505 505 0 0 0 0 0 0 0 0 0 0 0 0 0 0 0 0 0 0 0 505 505 505 505 505 505 505 505 505 505 505 505 505 505 505 505 505 505 505 505 505 505 505 505 505 505 505 505 505 505 505 505 505 505 505 505 505 505 505 505 505 505 505 505 505 505 505 505 505 505 505 505 505 505 505 0 0 0 0 0 505 505 505 505 505 505 505 505 505 
505 505 505 505 505 505 505 505 505 505 505 0 0 0 0 0 0 0 0 0 0 0 0 0 0 0 0 0 0 0 505 505 505 505 505 505 505 505 505 505 505 505 505 505 505 505 505 505 505 505 505 505 505 505 505 505 505 505 505 505 505 505 505 505 505 505 505 505 505 505 505 505 505 505 505 505 505 505 505 505 505 505 505 505 505 505 505 505 505 505 505 505 505 505 505 505 505 505 505 505 
505 505 505 505 505 505 505 505 505 505 0 0 0 0 0 0 0 0 0 0 0 0 0 0 0 0 0 0 505 505 505 505 505 505 505 505 505 505 505 505 505 505 505 505 505 505 505 505 505 505 505 505 505 505 505 505 505 505 505 505 505 505 505 0 0 0 0 0 0 505 505 505 505 505 505 505 505 505 505 505 505 505 505 505 505 505 505 505 505 505 505 505 505 505 505 505 505 505 505 505 
505 505 505 505 505 505 505 505 505 0 0 0 0 0 0 0 0 0 0 0 0 0 0 0 0 0 0 505 505 505 505 505 505 505 505 505 505 505 505 505 505 505 505 505 505 505 505 505 505 505 505 505 505 505 505 505 505 505 505 505 505 0 0 0 0 0 0 0 0 0 505 505 505 505 505 505 505 505 505 505 505 505 505 505 505 505 505 505 505 505 505 505 505 505 505 505 505 505 505 505 
505 505 505 505 505 505 505 505 0 0 0 0 0 0 0 0 0 0 0 0 0 0 0 0 0 505 505 505 505 505 505 505 505 505 505 505 505 505 505 505 505 505 505 505 505 505 505 505 505 505 505 505 505 505 505 505 505 505 505 505 0 0 0 0 0 0 0 0 0 0 0 505 505 505 505 505 505 505 505 505 505 505 505 505 505 505 505 505 505 505 505 505 505 505 505 505 505 505 505 505 
505 505 505 505 505 505 505 0 0 0 0 0 0 0 0 0 0 0 0 0 0 0 0 0 505 505 505 505 505 505 505 505 505 505 505 505 505 505 505 505 505 505 505 505 505 505 505 505 505 505 505 505 505 505 505 505 505 505 0 0 0 0 0 0 0 0 0 0 0 0 0 0 505 505 505 505 505 505 505 505 505 505 505 505 505 505 505 505 505 505 505 505 505 505 505 505 505 505 505 505 
505 505 505 505 505 505 0 0 0 0 0 0 0 0 0 0 0 0 0 0 0 0 0 0 505 505 505 505 505 505 505 505 505 505 505 505 505 505 505 505 505 505 505 505 505 505 505 505 505 505 505 505 505 505 505 505 505 0 0 0 0 0 0 0 0 0 0 0 0 0 0 0 0 505 505 505 505 505 505 505 505 505 505 505 505 505 505 505 505 505 505 505 505 505 505 505 505 505 505 505 
505 505 505 505 505 505 0 0 0 0 0 0 0 0 0 0 0 0 0 0 0 0 0 505 505 505 505 505 505 505 505 505 505 505 505 505 505 505 505 505 505 505 505 505 505 505 505 505 505 505 505 505 505 505 505 505 505 0 0 0 0 0 0 0 0 0 0 0 0 0 0 0 0 0 505 505 505 505 505 505 505 505 505 505 505 505 505 505 505 505 505 505 505 505 505 505 505 505 505 505 
505 505 505 505 505 505 0 0 0 0 0 0 0 0 0 0 0 0 0 0 0 0 0 505 505 505 505 505 505 505 505 505 505 505 505 505 505 505 505 505 505 505 505 505 505 505 505 505 505 505 505 505 505 505 505 505 505 0 0 0 0 0 0 0 0 0 0 0 0 0 0 0 0 0 505 505 505 505 505 505 505 505 505 505 505 505 505 505 505 505 505 505 505 505 505 505 505 505 505 505 
505 505 505 505 505 505 0 0 0 0 0 0 0 0 0 0 0 0 0 0 0 0 505 505 505 505 505 505 505 505 505 505 505 505 505 505 505 505 505 505 505 505 505 505 505 505 505 505 505 505 505 505 505 505 505 505 505 0 0 0 0 0 0 0 0 0 0 0 0 0 0 0 0 0 0 505 505 505 505 505 505 505 505 505 505 505 505 505 505 505 505 505 505 505 505 505 505 505 505 505 
505 505 505 505 505 505 505 0 0 0 0 0 0 0 0 0 0 0 0 0 0 505 505 505 505 505 505 505 505 505 505 505 505 505 505 505 505 505 505 505 505 505 505 505 505 505 505 505 505 505 505 505 505 505 505 505 505 0 0 0 0 0 0 0 0 0 0 0 0 0 0 0 0 0 0 505 505 505 505 505 505 505 505 505 505 505 505 505 505 505 505 505 505 505 505 505 505 505 505 505 
505 505 505 505 505 505 505 505 0 0 0 0 0 0 0 0 0 0 0 0 505 505 505 505 505 505 505 505 505 505 505 505 505 505 505 505 505 505 505 505 505 505 505 505 505 505 505 505 505 505 505 505 505 505 505 505 505 0 0 0 0 0 0 0 0 0 0 0 0 0 0 0 0 0 0 505 505 505 505 505 505 505 505 505 505 505 505 505 505 505 505 505 505 505 505 505 505 505 505 505 
505 505 505 505 505 505 505 505 505 0 0 0 0 0 0 0 0 0 0 505 505 505 505 505 505 505 505 505 505 505 505 505 505 505 505 505 505 505 505 505 505 505 505 505 505 505 505 505 505 505 505 505 505 505 505 505 505 505 0 0 0 0 0 0 0 0 0 0 0 0 0 0 0 0 505 505 505 505 505 505 505 505 505 505 505 505 505 505 505 505 505 505 505 505 505 505 505 505 505 505 
505 505 505 505 505 505 505 505 505 505 0 0 0 0 0 0 0 0 505 505 505 505 505 505 505 505 505 505 505 505 505 505 505 505 505 505 505 505 505 505 505 505 505 505 505 505 505 505 505 505 505 505 505 505 505 505 505 505 0 0 0 0 0 0 0 0 0 0 0 0 0 0 0 0 505 505 505 505 505 505 505 505 505 505 505 505 505 505 505 505 505 505 505 505 505 505 505 505 505 505 
505 505 505 505 505 505 505 505 505 505 505 0 0 0 0 0 505 505 505 505 505 505 505 505 505 505 505 505 505 505 505 505 505 505 505 505 505 505 505 505 505 505 505 505 505 505 505 505 505 505 505 505 505 505 505 505 505 505 505 0 0 0 0 0 0 0 0 0 0 0 0 0 0 505 505 505 505 505 505 505 505 505 505 505 505 505 505 505 505 505 505 505 505 505 505 505 505 505 505 505 
505 505 505 505 505 505 505 505 505 505 505 505 0 0 0 505 505 505 505 505 505 505 505 505 505 505 505 505 505 505 505 505 505 505 505 505 505 0 0 0 0 0 505 505 505 505 505 505 505 505 505 505 505 505 505 505 505 505 505 505 505 0 0 0 0 0 0 0 0 0 0 0 505 505 505 505 505 505 505 505 505 505 505 505 505 505 505 505 505 505 505 505 505 505 505 505 505 505 505 505 
505 505 505 505 505 505 505 505 505 505 505 505 505 505 505 505 505 505 505 505 505 505 505 505 505 505 505 505 505 505 505 505 505 505 505 0 0 0 0 0 0 0 0 505 505 505 505 505 505 505 505 505 505 505 505 505 505 505 505 505 505 505 0 0 0 0 0 0 0 0 0 505 505 505 505 505 505 505 505 505 505 505 505 505 505 505 505 505 505 505 505 505 505 505 505 505 505 505 505 505 
